<?xml version="1.0" encoding="UTF-8"?>
<svg width="40px" height="40px" viewBox="0 0 40 40" version="1.1" xmlns="http://www.w3.org/2000/svg" xmlns:xlink="http://www.w3.org/1999/xlink">
    <!-- Generator: Sketch 48.2 (47327) - http://www.bohemiancoding.com/sketch -->
    <title>icon-application</title>
    <desc>Created with Sketch.</desc>
    <defs></defs>
    <g id="Page-1" stroke="none" stroke-width="1" fill="none" fill-rule="evenodd">
        <g id="Group" transform="translate(-167.000000, -72.000000)">
            <g id="icon-application" transform="translate(167.000000, 72.000000)">
                <rect id="Rectangle-5" x="0" y="0" width="40" height="40"></rect>
                <rect id="Rectangle-6" stroke="#8C9BA5" stroke-width="2" x="1" y="1" width="10" height="10" rx="2"></rect>
                <rect id="Rectangle-6" stroke="#8C9BA5" stroke-width="2" x="29" y="1" width="10" height="10" rx="2"></rect>
                <rect id="Rectangle-6" stroke="#8C9BA5" stroke-width="2" x="15" y="1" width="10" height="10" rx="2"></rect>
                <rect id="Rectangle-6" stroke="#8C9BA5" stroke-width="2" x="1" y="15" width="10" height="10" rx="2"></rect>
                <rect id="Rectangle-6" stroke="#8C9BA5" stroke-width="2" x="29" y="15" width="10" height="10" rx="2"></rect>
                <rect id="Rectangle-6" stroke="#8C9BA5" stroke-width="2" x="15" y="15" width="10" height="10" rx="2"></rect>
                <rect id="Rectangle-6" stroke="#8C9BA5" stroke-width="2" x="1" y="29" width="10" height="10" rx="2"></rect>
                <rect id="Rectangle-10" fill="#F0F3F6" x="0" y="34" width="2" height="2"></rect>
                <rect id="Rectangle-10" fill="#F0F3F6" x="17" y="0" width="2" height="2"></rect>
                <rect id="Rectangle-10" fill="#F0F3F6" x="3" y="38" width="4" height="2"></rect>
                <rect id="Rectangle-10" fill="#F0F3F6" x="33" y="0" width="4" height="2"></rect>
                <rect id="Rectangle-6" stroke="#8C9BA5" stroke-width="2" x="29" y="29" width="10" height="10" rx="2"></rect>
                <rect id="Rectangle-6" stroke="#8C9BA5" stroke-width="2" x="15" y="29" width="10" height="10" rx="2"></rect>
            </g>
        </g>
    </g>
</svg>