<?xml version="1.0" encoding="UTF-8"?>
<svg width="32px" height="32px" viewBox="0 0 24 24" version="1.1" xmlns="http://www.w3.org/2000/svg" xmlns:xlink="http://www.w3.org/1999/xlink">
    <!-- Generator: Sketch 49.2 (51160) - http://www.bohemiancoding.com/sketch -->
    <title>UI Icon/Icon/user/$ui-05</title>
    <desc>Created with Sketch.</desc>
    <defs></defs>
    <g id="UI-Icon/Icon/user/$ui-05" stroke="none" stroke-width="1" fill="none" fill-rule="evenodd">
        <g id="user" fill="#FFFFFF">
            <path d="M12 0C5.4 0 0 5.4 0 12s5.4 12 12 12 12-5.4 12-12S18.6 0 12 0zm0 4.6c2.8 0 5 2.2 5 5s-2.2 5-5 5-5-2.2-5-5 2.2-5 5-5zm7 14.5c-1.8 1.8-4.3 2.9-7 2.9s-5.2-1.1-7-2.9v-1.6c0-1.3.7-2 2-2h10c1.3 0 2 .7 2 2v1.6z"/>
        </g>
    </g>
</svg>